<svg viewBox="0 0 240 240" class="" role="presentation" focusable="false" xmlns="http://www.w3.org/2000/svg" xmlns:xlink="http://www.w3.org/1999/xlink" id="FxSymbol0-024" data-type="1"><g><title></title><path d="M83.586 17.125h64.91l-67.38 199.648a10.35 10.35 0 0 1-9.808 7.04H20.792a10.334 10.334 0 0 1-9.791-13.639L73.779 24.165a10.35 10.35 0 0 1 9.807-7.04Z" fill="url(#c97164fc-3bd6-41fd-a7b1-d43f56a8f02e)"></path><path d="M177.91 151.035H74.977a4.767 4.767 0 0 0-4.648 5.816 4.76 4.76 0 0 0 1.397 2.433l66.142 61.733a10.4 10.4 0 0 0 7.094 2.796h58.282l-25.334-72.778Z" fill="#0078D4"></path><path d="M83.586 17.124a10.266 10.266 0 0 0-9.828 7.176l-62.68 185.706a10.32 10.32 0 0 0 9.744 13.807h51.82a11.076 11.076 0 0 0 8.502-7.232l12.497-36.834 44.648 41.642a10.569 10.569 0 0 0 6.646 2.425h58.066l-25.468-72.779-74.241.017 45.44-133.928H83.586Z" fill="url(#c97164fc-3bd6-41fd-a7b1-d43f56a8f02f)"></path><path d="M166.493 24.154a10.335 10.335 0 0 0-9.791-7.03H84.36a10.336 10.336 0 0 1 9.793 7.03l62.781 186.02c.525 1.554.671 3.212.428 4.834a10.34 10.34 0 0 1-10.22 8.805h72.341a10.336 10.336 0 0 0 9.791-13.639l-62.781-186.02Z" fill="url(#c97164fc-3bd6-41fd-a7b1-d43f56a8f030)"></path><defs></defs></g><defs>
<linearGradient id="c97164fc-3bd6-41fd-a7b1-d43f56a8f02e" x1="107.244" y1="32.441" x2="39.833" y2="231.589" gradientUnits="userSpaceOnUse"><stop stop-color="#114A8B"></stop><stop offset="1" stop-color="#0669BC"></stop></linearGradient>
<linearGradient id="c97164fc-3bd6-41fd-a7b1-d43f56a8f02f" x1="128.302" y1="125.249" x2="112.708" y2="130.521" gradientUnits="userSpaceOnUse"><stop stop-opacity=".3"></stop><stop offset=".071" stop-opacity=".2"></stop><stop offset=".321" stop-opacity=".1"></stop><stop offset=".623" stop-opacity=".05"></stop><stop offset="1" stop-opacity="0"></stop></linearGradient>
<linearGradient id="c97164fc-3bd6-41fd-a7b1-d43f56a8f030" x1="119.727" y1="26.631" x2="193.723" y2="223.774" gradientUnits="userSpaceOnUse"><stop stop-color="#3CCBF4"></stop><stop offset="1" stop-color="#2892DF"></stop></linearGradient>
</defs>
</svg>